<svg xmlns="http://www.w3.org/2000/svg" width="24.225" height="26" viewBox="0 0 24.225 26">
  <g id="Group_86" data-name="Group 86" transform="translate(-189.78 -700.783)">
    <path id="Path_160" data-name="Path 160" d="M262.961,784.043c-.84,0-1.68-.007-2.52,0a.63.63,0,0,1-.676-.648,4.541,4.541,0,0,0-1.211-3.04,18.623,18.623,0,0,1-1.395-1.764,6.312,6.312,0,0,1-1.083-3.929,6.754,6.754,0,0,1,4.279-6.178,6.326,6.326,0,0,1,3.083-.5,6.913,6.913,0,0,1,6.384,6.057,6.868,6.868,0,0,1-1.681,5.419c-.36.423-.71.854-1.059,1.287a4.311,4.311,0,0,0-.916,2.664.585.585,0,0,1-.652.627Q264.239,784.045,262.961,784.043Zm0-.888c.728,0,1.455,0,2.183,0,.128,0,.17-.035.178-.168a4.435,4.435,0,0,1,.8-2.387c.457-.631.951-1.236,1.452-1.833a6.025,6.025,0,0,0,.258-7.452,5.955,5.955,0,0,0-7.15-1.994,5.813,5.813,0,0,0-3.7,5.192,5.738,5.738,0,0,0,1.28,4.1c.415.53.861,1.036,1.28,1.563a4.844,4.844,0,0,1,1.094,2.845c.006.127.066.139.168.139C261.514,783.155,262.235,783.156,262.957,783.156Z" transform="translate(-61.077 -61.905)" fill="#ffffff"/>
    <path id="Path_161" data-name="Path 161" d="M191.291,846.383h-1.038a.492.492,0,0,0-.353.139.415.415,0,0,0-.12.3.452.452,0,0,0,.47.433h3.031a.475.475,0,0,0,.345-.13.432.432,0,0,0,.119-.315.426.426,0,0,0-.463-.429h-1.991Z" transform="translate(0 -134.158)" fill="#ffffff"/>
    <path id="Path_162" data-name="Path 162" d="M339.2,701.252a.432.432,0,0,0-.441-.469h0a.434.434,0,0,0-.434.478c0,.962,0,1.97,0,2.995a.441.441,0,1,0,.877.008q0-.53,0-1.059V702.3Q339.2,701.774,339.2,701.252Z" transform="translate(-136.873 0)" fill="#ffffff"/>
    <path id="Path_163" data-name="Path 163" d="M451.047,846.386h-3.011a.583.583,0,0,0-.145.014.426.426,0,0,0-.315.506.435.435,0,0,0,.441.353l1.447,0h1.584a.454.454,0,0,0,.489-.433.4.4,0,0,0-.116-.3A.518.518,0,0,0,451.047,846.386Z" transform="translate(-237.532 -134.16)" fill="#ffffff"/>
    <path id="Path_164" data-name="Path 164" d="M224.015,748.8l-.408-.4c-.233-.231-.474-.471-.714-.7a.431.431,0,0,0-.3-.138.467.467,0,0,0-.19.045.43.43,0,0,0-.261.461v.009a.466.466,0,0,0,.173.287c.667.653,1.384,1.357,2.11,2.075a.538.538,0,0,0,.374.167.4.4,0,0,0,.29-.121.417.417,0,0,0,.124-.3.53.53,0,0,0-.171-.371C224.706,749.475,224.378,749.153,224.015,748.8Z" transform="translate(-29.819 -43.094)" fill="#ffffff"/>
    <path id="Path_165" data-name="Path 165" d="M429.229,750.631h.011c.026,0,.1-.014.234-.143s.295-.29.438-.432l.3-.3.459-.45c.323-.315.656-.64.976-.967a.424.424,0,0,0,0-.61.434.434,0,0,0-.31-.134.474.474,0,0,0-.328.143c-.747.729-1.482,1.452-2.185,2.149a.394.394,0,0,0-.088.475c.056.136.15.262.454.266h.015Z" transform="translate(-220.147 -43.133)" fill="#ffffff"/>
    <path id="Path_166" data-name="Path 166" d="M307.354,976.1c.917,0,1.834,0,2.751,0a.438.438,0,0,1,.438.3.417.417,0,0,1-.152.488.617.617,0,0,1-.313.1q-2.715.009-5.431,0a.463.463,0,0,1-.485-.337.433.433,0,0,1,.221-.495.7.7,0,0,1,.29-.053C305.568,976.1,306.461,976.1,307.354,976.1Z" transform="translate(-105.382 -253.679)" fill="#ffffff"/>
    <path id="Path_167" data-name="Path 167" d="M307.393,991.151c-.876,0-1.751,0-2.627,0a.876.876,0,0,1-.358-.064.392.392,0,0,1-.214-.429.4.4,0,0,1,.3-.359.707.707,0,0,1,.209-.028c1.8,0,3.6,0,5.4,0a.665.665,0,0,1,.357.116.4.4,0,0,1,.113.5.407.407,0,0,1-.387.261h-2.786Z" transform="translate(-105.419 -266.734)" fill="#ffffff"/>
    <path id="Path_168" data-name="Path 168" d="M307.288,1005.2H304.56a.425.425,0,0,1-.423-.263.382.382,0,0,1,.084-.472.6.6,0,0,1,.345-.143c1.743-.009,3.486-.006,5.229,0a2.291,2.291,0,0,1,.334.008.438.438,0,0,1-.058.873c-.437.006-.874,0-1.311,0h-1.472Z" transform="translate(-105.329 -279.68)" fill="#ffffff"/>
    <path id="Path_169" data-name="Path 169" d="M312.843,1018.79a1.556,1.556,0,0,1-1.434,1.009q-1.55,0-3.1,0a1.581,1.581,0,0,1-1.454-.93.093.093,0,0,1-.009-.034.307.307,0,0,1,0-.043Z" transform="translate(-107.866 -293.016)" fill="#ffffff"/>
    <path id="Path_170" data-name="Path 170" d="M224.746,913.967a.462.462,0,0,0-.365-.189.357.357,0,0,0-.207.064c-.682.479-1.412,1-2.229,1.6a.417.417,0,0,0-.13.5.5.5,0,0,0,.391.3l.061-.022a1.823,1.823,0,0,0,.227-.092,1.26,1.26,0,0,0,.17-.117l.092-.069.552-.4c.447-.32.908-.65,1.357-.981A.427.427,0,0,0,224.746,913.967Z" transform="translate(-29.49 -196.256)" fill="#ffffff"/>
    <path id="Path_171" data-name="Path 171" d="M429.568,915.472c-.756-.545-1.439-1.038-2.143-1.538a.511.511,0,0,0-.294-.1.422.422,0,0,0-.346.189.443.443,0,0,0,.13.623c.669.484,1.386,1,2.1,1.5a1.145,1.145,0,0,0,.227.108l.077.031a.513.513,0,0,0,.407-.324A.433.433,0,0,0,429.568,915.472Z" transform="translate(-218.308 -196.306)" fill="#ffffff"/>
    <path id="Path_172" data-name="Path 172" d="M299.235,828.969a2.418,2.418,0,0,1,.183-.247q2.1-2.129,4.206-4.255c.05-.051.1-.1.153-.15a.425.425,0,0,1,.547,0,.437.437,0,0,1,.082.561,1.358,1.358,0,0,1-.173.2l-4.6,4.665c-.308.312-.5.314-.8.009-.612-.624-1.229-1.244-1.827-1.88a.639.639,0,0,1-.163-.437.533.533,0,0,1,.258-.328.371.371,0,0,1,.469.118q.735.749,1.468,1.5C299.091,828.778,299.141,828.852,299.235,828.969Z" transform="translate(-98.642 -113.732)" fill="#ffffff"/>
  </g>
</svg>
