<svg xmlns="http://www.w3.org/2000/svg" width="27.037" height="23.725" viewBox="0 0 27.037 23.725">
  <path id="Path_137" data-name="Path 137" d="M-441.55,162.2h-26.832c0-.13-.012-.259-.012-.389q0-7.664,0-15.327c0-.07,0-.14,0-.21-.01-.154.058-.216.212-.21.21.007.421-.013.63.005.235.021.29-.078.281-.294-.017-.4-.012-.8-.011-1.2,0-.326.091-.425.419-.462.288-.032.577-.066.867-.078.2-.008.25-.093.247-.279-.009-.59-.005-1.18,0-1.77,0-.393.095-.478.483-.46a15.73,15.73,0,0,1,9.526,3.709c.258.213.514.43.792.663.1-.17.175-.311.263-.442.658-.978,1.273-1.989,1.988-2.923a13.423,13.423,0,0,1,4.61-3.946c.448-.226.639-.114.64.382,0,.91,0,1.82,0,2.73,0,.1.01.207.012.246,1.195-.141,2.353-.285,3.514-.411.456-.05.554.055.554.51q0,1.83,0,3.659c0,.115.011.229.018.362h1.415c.505,0,.576.069.576.567q0,7.5-.008,15A1.991,1.991,0,0,1-441.55,162.2Zm-23.56-5.2a16.046,16.046,0,0,1,9.9,4.132c.011-.138.021-.2.021-.271q0-7.048-.007-14.1a.582.582,0,0,0-.177-.378,15.356,15.356,0,0,0-8.951-4.162c-.254-.028-.51-.04-.786-.062Zm10.546,3.529.075.031c.127-.2.252-.4.38-.6a16.245,16.245,0,0,1,5.847-5.812c.18-.1.187-.229.187-.4q0-7.063,0-14.126c0-.092-.013-.184-.023-.31a11.91,11.91,0,0,0-2.736,2.055,21.3,21.3,0,0,0-3.621,4.941.975.975,0,0,0-.1.455q-.008,6.733,0,13.466ZM-444.022,157V142.169a17.109,17.109,0,0,0-3.258.472c-.184.043-.17.161-.17.292q0,1.17,0,2.34c0,2.91,0,5.819.006,8.729a.6.6,0,0,1-.387.633,6.941,6.941,0,0,0-.813.449,15.964,15.964,0,0,0-4.556,4.625c-.143.207-.272.423-.407.635a20.123,20.123,0,0,1,4.556-2.363A17.357,17.357,0,0,1-444.022,157ZM-454,161.538h12.016v-.374q0-7.047,0-14.094a.532.532,0,0,0-.007-.207c-.03-.066-.1-.158-.157-.16-.4-.014-.793-.007-1.221-.007v.419q0,4.963,0,9.926c0,.482-.077.563-.545.581a16.38,16.38,0,0,0-4.532.812A16.525,16.525,0,0,0-454,161.538Zm-13.771,0h11.982a1.522,1.522,0,0,0-.174-.111c-1.008-.41-1.994-.89-3.029-1.212a18.328,18.328,0,0,0-7.541-.595c-.582.064-.63.014-.635-.587q-.05-5.966-.1-11.933c0-.126-.011-.253-.017-.372-.478-.077-.484-.073-.485.343q0,7.061,0,14.122Zm1.11-16.81c.041,4.756.081,9.489.122,14.268a19.816,19.816,0,0,1,8.407.792.567.567,0,0,0-.159-.129,15.169,15.169,0,0,0-6.866-2.033c-.558-.026-.6-.067-.6-.612q0-5.983,0-11.966v-.406Z" transform="translate(468.395 -138.477)" fill="#fff"/>
</svg>
